<mxfile host="Electron" agent="Mozilla/5.0 (Windows NT 10.0; Win64; x64) AppleWebKit/537.36 (KHTML, like Gecko) draw.io/28.0.6 Chrome/138.0.7204.100 Electron/37.2.3 Safari/537.36" version="28.0.6">
  <diagram name="Strona-1" id="26SbDysGSmhnUaPpNsRJ">
    <mxGraphModel dx="1984" dy="1250" grid="1" gridSize="10" guides="1" tooltips="1" connect="1" arrows="1" fold="1" page="1" pageScale="1" pageWidth="827" pageHeight="1169" math="0" shadow="0">
      <root>
        <mxCell id="0" />
        <mxCell id="1" parent="0" />
        <mxCell id="O6e28tG1GYHOSvyffjGR-31" value="" style="group" parent="1" vertex="1" connectable="0">
          <mxGeometry x="40" y="40" width="940" height="920" as="geometry" />
        </mxCell>
        <mxCell id="O6e28tG1GYHOSvyffjGR-23" value="" style="group" parent="O6e28tG1GYHOSvyffjGR-31" vertex="1" connectable="0">
          <mxGeometry y="120" width="940" height="800" as="geometry" />
        </mxCell>
        <mxCell id="O6e28tG1GYHOSvyffjGR-28" value="" style="group" parent="O6e28tG1GYHOSvyffjGR-23" vertex="1" connectable="0">
          <mxGeometry width="940" height="800" as="geometry" />
        </mxCell>
        <mxCell id="O6e28tG1GYHOSvyffjGR-2" value="&lt;font style=&quot;font-size: 20px;&quot;&gt;&lt;b&gt;University&lt;/b&gt;&lt;/font&gt;&lt;br&gt;&lt;font style=&quot;font-size: 14px;&quot;&gt;(internal stakeholders: university authorities, students, administrative staff, teaching and research staff, alumni)&lt;br&gt;&lt;/font&gt;" style="rounded=0;whiteSpace=wrap;html=1;dashed=1;strokeWidth=3;fillColor=#FFFFFF;strokeColor=#000000;verticalAlign=top;align=center;horizontal=1;gradientColor=none;" parent="O6e28tG1GYHOSvyffjGR-28" vertex="1">
          <mxGeometry width="940" height="800" as="geometry" />
        </mxCell>
        <mxCell id="O6e28tG1GYHOSvyffjGR-27" value="" style="group" parent="O6e28tG1GYHOSvyffjGR-28" vertex="1" connectable="0">
          <mxGeometry x="40" y="80" width="870" height="690" as="geometry" />
        </mxCell>
        <mxCell id="O6e28tG1GYHOSvyffjGR-8" value="&lt;font style=&quot;&quot;&gt;&lt;b style=&quot;&quot;&gt;&lt;font style=&quot;font-size: 22px;&quot;&gt;Quality culture&lt;/font&gt;&lt;/b&gt;&lt;br&gt;&lt;span style=&quot;font-size: 18px;&quot;&gt;in the university&#39;s organisational units&lt;/span&gt;&lt;br&gt;&lt;br&gt;&lt;br&gt;&lt;b style=&quot;&quot;&gt;&lt;font style=&quot;font-size: 22px;&quot;&gt;Leadership&lt;/font&gt;&lt;/b&gt;&lt;br&gt;&lt;span style=&quot;font-size: 18px;&quot;&gt;of the university&#39;s and it&#39;s units&#39; managers&lt;/span&gt;&lt;/font&gt;" style="rounded=1;whiteSpace=wrap;html=1;sketch=1;curveFitting=1;jiggle=2;strokeWidth=2;" parent="O6e28tG1GYHOSvyffjGR-27" vertex="1">
          <mxGeometry y="510" width="410" height="180" as="geometry" />
        </mxCell>
        <mxCell id="O6e28tG1GYHOSvyffjGR-21" value="&lt;font style=&quot;&quot;&gt;&lt;b style=&quot;&quot;&gt;&lt;font style=&quot;font-size: 20px;&quot;&gt;Bottom-up Initiatives&lt;/font&gt;&lt;/b&gt;&lt;br&gt;&lt;span style=&quot;font-size: 18px;&quot;&gt;of academic, research and administrative &lt;br&gt;staff teams using&amp;nbsp;&lt;br&gt;&lt;/span&gt;&lt;span style=&quot;font-size: 18px;&quot;&gt;Lean Management (Lean HE), &lt;br&gt;Lean SixSigma&lt;/span&gt;&lt;/font&gt;" style="rounded=1;whiteSpace=wrap;html=1;sketch=1;curveFitting=1;jiggle=2;glass=0;strokeWidth=2;" parent="O6e28tG1GYHOSvyffjGR-27" vertex="1">
          <mxGeometry x="470" y="510" width="390" height="180" as="geometry" />
        </mxCell>
        <mxCell id="O6e28tG1GYHOSvyffjGR-26" value="" style="group" parent="O6e28tG1GYHOSvyffjGR-27" vertex="1" connectable="0">
          <mxGeometry width="870" height="440" as="geometry" />
        </mxCell>
        <mxCell id="O6e28tG1GYHOSvyffjGR-6" value="" style="group;rounded=1;sketch=1;curveFitting=1;jiggle=2;" parent="O6e28tG1GYHOSvyffjGR-26" vertex="1" connectable="0">
          <mxGeometry y="60" width="340" height="250" as="geometry" />
        </mxCell>
        <mxCell id="O6e28tG1GYHOSvyffjGR-4" value="&lt;font size=&quot;1&quot; style=&quot;&quot;&gt;&lt;b style=&quot;font-size: 18px;&quot;&gt;University Strategy&lt;/b&gt;&lt;/font&gt;" style="rounded=0;whiteSpace=wrap;html=1;strokeWidth=2;horizontal=0;sketch=1;curveFitting=1;jiggle=2;" parent="O6e28tG1GYHOSvyffjGR-6" vertex="1">
          <mxGeometry width="70" height="250.00000000000003" as="geometry" />
        </mxCell>
        <mxCell id="O6e28tG1GYHOSvyffjGR-5" value="&lt;font style=&quot;&quot;&gt;&lt;b style=&quot;&quot;&gt;&lt;font style=&quot;font-size: 18px;&quot;&gt;Self-assessment&lt;/font&gt;&lt;/b&gt;&lt;br&gt;&lt;span style=&quot;font-size: 14px;&quot;&gt;(e.g., CAF, EFQM)&lt;/span&gt;&lt;br&gt;&lt;span style=&quot;font-size: 14px;&quot;&gt;readiness for change&lt;/span&gt;&lt;/font&gt;" style="ellipse;shape=cloud;whiteSpace=wrap;html=1;sketch=1;curveFitting=1;jiggle=2;" parent="O6e28tG1GYHOSvyffjGR-6" vertex="1">
          <mxGeometry x="110" y="35" width="230" height="180" as="geometry" />
        </mxCell>
        <mxCell id="O6e28tG1GYHOSvyffjGR-25" value="" style="group" parent="O6e28tG1GYHOSvyffjGR-26" vertex="1" connectable="0">
          <mxGeometry x="380" width="490" height="440" as="geometry" />
        </mxCell>
        <mxCell id="O6e28tG1GYHOSvyffjGR-7" value="&lt;b&gt;&lt;font style=&quot;font-size: 18px;&quot;&gt;&lt;br&gt;Process and knowledge management&lt;/font&gt;&lt;/b&gt;&lt;br&gt;&lt;font style=&quot;&quot;&gt;(&lt;/font&gt;&lt;font style=&quot;font-size: 14px;&quot;&gt;education, scientific research, administration and service, services for the environment)&lt;/font&gt;" style="rounded=1;whiteSpace=wrap;html=1;verticalAlign=top;sketch=1;curveFitting=1;jiggle=2;strokeWidth=2;" parent="O6e28tG1GYHOSvyffjGR-25" vertex="1">
          <mxGeometry width="490" height="440" as="geometry" />
        </mxCell>
        <mxCell id="O6e28tG1GYHOSvyffjGR-24" value="" style="group" parent="O6e28tG1GYHOSvyffjGR-25" vertex="1" connectable="0">
          <mxGeometry x="40" y="110" width="410" height="310" as="geometry" />
        </mxCell>
        <mxCell id="O6e28tG1GYHOSvyffjGR-19" value="" style="group" parent="O6e28tG1GYHOSvyffjGR-24" vertex="1" connectable="0">
          <mxGeometry width="410" height="210" as="geometry" />
        </mxCell>
        <mxCell id="O6e28tG1GYHOSvyffjGR-9" value="&lt;b&gt;&lt;font style=&quot;font-size: 16px;&quot;&gt;Design&lt;/font&gt;&lt;/b&gt;" style="rounded=0;whiteSpace=wrap;html=1;strokeWidth=2;sketch=1;curveFitting=1;jiggle=2;" parent="O6e28tG1GYHOSvyffjGR-19" vertex="1">
          <mxGeometry x="140" width="120" height="30" as="geometry" />
        </mxCell>
        <mxCell id="O6e28tG1GYHOSvyffjGR-10" value="&lt;b&gt;&lt;font style=&quot;font-size: 16px;&quot;&gt;Monitoring&lt;/font&gt;&lt;/b&gt;" style="rounded=0;whiteSpace=wrap;html=1;strokeWidth=2;sketch=1;curveFitting=1;jiggle=2;" parent="O6e28tG1GYHOSvyffjGR-19" vertex="1">
          <mxGeometry x="140" y="180" width="120" height="30" as="geometry" />
        </mxCell>
        <mxCell id="O6e28tG1GYHOSvyffjGR-18" style="edgeStyle=orthogonalEdgeStyle;rounded=1;orthogonalLoop=1;jettySize=auto;html=1;exitX=0.5;exitY=0;exitDx=0;exitDy=0;entryX=0;entryY=0.5;entryDx=0;entryDy=0;shape=flexArrow;targetPerimeterSpacing=1;sourcePerimeterSpacing=1;sketch=1;curveFitting=1;jiggle=2;" parent="O6e28tG1GYHOSvyffjGR-19" source="O6e28tG1GYHOSvyffjGR-11" target="O6e28tG1GYHOSvyffjGR-9" edge="1">
          <mxGeometry relative="1" as="geometry" />
        </mxCell>
        <mxCell id="O6e28tG1GYHOSvyffjGR-11" value="&lt;b&gt;&lt;font style=&quot;font-size: 16px;&quot;&gt;Improvement&lt;/font&gt;&lt;/b&gt;" style="rounded=0;whiteSpace=wrap;html=1;strokeWidth=2;sketch=1;curveFitting=1;jiggle=2;" parent="O6e28tG1GYHOSvyffjGR-19" vertex="1">
          <mxGeometry x="-10" y="90" width="130" height="30" as="geometry" />
        </mxCell>
        <mxCell id="O6e28tG1GYHOSvyffjGR-17" style="edgeStyle=orthogonalEdgeStyle;rounded=1;orthogonalLoop=1;jettySize=auto;html=1;exitX=0;exitY=0.5;exitDx=0;exitDy=0;entryX=0.5;entryY=1;entryDx=0;entryDy=0;shape=flexArrow;targetPerimeterSpacing=1;sourcePerimeterSpacing=1;sketch=1;curveFitting=1;jiggle=2;" parent="O6e28tG1GYHOSvyffjGR-19" source="O6e28tG1GYHOSvyffjGR-10" target="O6e28tG1GYHOSvyffjGR-11" edge="1">
          <mxGeometry relative="1" as="geometry" />
        </mxCell>
        <mxCell id="O6e28tG1GYHOSvyffjGR-16" style="edgeStyle=orthogonalEdgeStyle;rounded=1;orthogonalLoop=1;jettySize=auto;html=1;exitX=0.5;exitY=1;exitDx=0;exitDy=0;entryX=1;entryY=0.5;entryDx=0;entryDy=0;shape=flexArrow;targetPerimeterSpacing=1;sourcePerimeterSpacing=1;sketch=1;curveFitting=1;jiggle=2;" parent="O6e28tG1GYHOSvyffjGR-19" source="O6e28tG1GYHOSvyffjGR-12" target="O6e28tG1GYHOSvyffjGR-10" edge="1">
          <mxGeometry relative="1" as="geometry" />
        </mxCell>
        <mxCell id="O6e28tG1GYHOSvyffjGR-12" value="&lt;b&gt;&lt;font style=&quot;font-size: 16px;&quot;&gt;Implementation&lt;/font&gt;&lt;/b&gt;" style="rounded=0;whiteSpace=wrap;html=1;strokeWidth=2;sketch=1;curveFitting=1;jiggle=2;" parent="O6e28tG1GYHOSvyffjGR-19" vertex="1">
          <mxGeometry x="280" y="90" width="130" height="30" as="geometry" />
        </mxCell>
        <mxCell id="O6e28tG1GYHOSvyffjGR-15" style="edgeStyle=orthogonalEdgeStyle;rounded=1;orthogonalLoop=1;jettySize=auto;html=1;exitX=1;exitY=0.5;exitDx=0;exitDy=0;entryX=0.5;entryY=0;entryDx=0;entryDy=0;shape=flexArrow;targetPerimeterSpacing=1;sourcePerimeterSpacing=1;sketch=1;curveFitting=1;jiggle=2;" parent="O6e28tG1GYHOSvyffjGR-19" source="O6e28tG1GYHOSvyffjGR-9" target="O6e28tG1GYHOSvyffjGR-12" edge="1">
          <mxGeometry relative="1" as="geometry" />
        </mxCell>
        <mxCell id="O6e28tG1GYHOSvyffjGR-14" value="&lt;b style=&quot;font-size: 16px;&quot;&gt;Internal QMS&lt;br&gt;ISO 9001&lt;br&gt;ISO 21001&lt;br&gt;others&lt;/b&gt;" style="shape=hexagon;perimeter=hexagonPerimeter2;whiteSpace=wrap;html=1;fixedSize=1;sketch=1;curveFitting=1;jiggle=2;strokeWidth=2;" parent="O6e28tG1GYHOSvyffjGR-19" vertex="1">
          <mxGeometry x="130" y="45" width="140" height="120" as="geometry" />
        </mxCell>
        <mxCell id="O6e28tG1GYHOSvyffjGR-22" value="&lt;b style=&quot;border-color: var(--border-color);&quot;&gt;&lt;font style=&quot;border-color: var(--border-color); font-size: 17px;&quot;&gt;IT support&lt;/font&gt;&lt;/b&gt;" style="ellipse;shape=cloud;whiteSpace=wrap;html=1;sketch=1;curveFitting=1;jiggle=2;" parent="O6e28tG1GYHOSvyffjGR-24" vertex="1">
          <mxGeometry x="50" y="250" width="300" height="60" as="geometry" />
        </mxCell>
        <mxCell id="O6e28tG1GYHOSvyffjGR-32" value="" style="group" parent="O6e28tG1GYHOSvyffjGR-31" vertex="1" connectable="0">
          <mxGeometry width="940" height="60" as="geometry" />
        </mxCell>
        <mxCell id="O6e28tG1GYHOSvyffjGR-30" value="" style="group" parent="O6e28tG1GYHOSvyffjGR-32" vertex="1" connectable="0">
          <mxGeometry width="940" height="60" as="geometry" />
        </mxCell>
        <mxCell id="O6e28tG1GYHOSvyffjGR-29" value="" style="group" parent="O6e28tG1GYHOSvyffjGR-30" vertex="1" connectable="0">
          <mxGeometry width="940" height="60" as="geometry" />
        </mxCell>
        <mxCell id="O6e28tG1GYHOSvyffjGR-1" value="&lt;b&gt;&lt;font style=&quot;font-size: 20px;&quot;&gt;External stakeholders&lt;/font&gt;&lt;/b&gt;&lt;br&gt;&lt;font style=&quot;font-size: 14px;&quot;&gt;(employers, businesses and public organizations, representatives of local and central authorities, society, alumni, students’ parents)&lt;/font&gt;" style="rounded=0;whiteSpace=wrap;html=1;strokeWidth=3;fillColor=#FFFFFF;strokeColor=#000000;gradientColor=none;" parent="O6e28tG1GYHOSvyffjGR-29" vertex="1">
          <mxGeometry width="940" height="60" as="geometry" />
        </mxCell>
        <mxCell id="O6e28tG1GYHOSvyffjGR-3" value="" style="rounded=0;orthogonalLoop=1;jettySize=auto;html=1;shape=flexArrow;startArrow=block;strokeWidth=3;endSize=3;startSize=3;targetPerimeterSpacing=0;elbow=vertical;sketch=1;curveFitting=1;jiggle=2;" parent="O6e28tG1GYHOSvyffjGR-32" source="O6e28tG1GYHOSvyffjGR-1" target="O6e28tG1GYHOSvyffjGR-2" edge="1">
          <mxGeometry relative="1" as="geometry" />
        </mxCell>
        <mxCell id="O6e28tG1GYHOSvyffjGR-33" value="" style="endArrow=classic;html=1;rounded=0;strokeWidth=3;" parent="1" edge="1">
          <mxGeometry width="50" height="50" relative="1" as="geometry">
            <mxPoint x="150" y="320" as="sourcePoint" />
            <mxPoint x="460" y="320" as="targetPoint" />
          </mxGeometry>
        </mxCell>
        <mxCell id="O6e28tG1GYHOSvyffjGR-34" value="" style="endArrow=none;html=1;rounded=0;strokeWidth=3;startArrow=classic;startFill=1;endFill=0;" parent="1" edge="1">
          <mxGeometry width="50" height="50" relative="1" as="geometry">
            <mxPoint x="150" y="530" as="sourcePoint" />
            <mxPoint x="460" y="530" as="targetPoint" />
          </mxGeometry>
        </mxCell>
        <mxCell id="O6e28tG1GYHOSvyffjGR-35" value="" style="endArrow=classic;html=1;rounded=0;strokeWidth=3;startArrow=classic;startFill=1;endFill=1;" parent="1" edge="1">
          <mxGeometry width="50" height="50" relative="1" as="geometry">
            <mxPoint x="490" y="840" as="sourcePoint" />
            <mxPoint x="550" y="840" as="targetPoint" />
          </mxGeometry>
        </mxCell>
        <mxCell id="O6e28tG1GYHOSvyffjGR-36" value="" style="endArrow=classic;html=1;rounded=0;strokeWidth=3;startArrow=classic;startFill=1;endFill=1;" parent="1" edge="1">
          <mxGeometry width="50" height="50" relative="1" as="geometry">
            <mxPoint x="470" y="750" as="sourcePoint" />
            <mxPoint x="470" y="660" as="targetPoint" />
          </mxGeometry>
        </mxCell>
        <mxCell id="O6e28tG1GYHOSvyffjGR-37" value="" style="endArrow=classic;html=1;rounded=0;strokeWidth=3;startArrow=classic;startFill=1;endFill=1;" parent="1" edge="1">
          <mxGeometry width="50" height="50" relative="1" as="geometry">
            <mxPoint x="750" y="750" as="sourcePoint" />
            <mxPoint x="750" y="680" as="targetPoint" />
          </mxGeometry>
        </mxCell>
        <mxCell id="O6e28tG1GYHOSvyffjGR-38" value="" style="endArrow=classic;html=1;rounded=0;strokeWidth=3;startArrow=classic;startFill=1;endFill=1;" parent="1" edge="1">
          <mxGeometry width="50" height="50" relative="1" as="geometry">
            <mxPoint x="115" y="750" as="sourcePoint" />
            <mxPoint x="115" y="550" as="targetPoint" />
          </mxGeometry>
        </mxCell>
      </root>
    </mxGraphModel>
  </diagram>
</mxfile>
